#!OML:ASF E:\motion texture\Top Level 1\Subject 1\Session 1\male.ASF
:FULLY-SPECIFIED
:DEGREES
706
root -32.4831 17.9883 3.62028 1204.82 -94.8568 -1201.92
lowerback -0.407083 -4.09981 -5.85418
upperback -3.05641 -5.54581 1.51932
thorax -2.23125 -2.64053 4.89254
lowerneck -20.0972 -2.34141 -4.9449
upperneck 16.6812 -3.01477 5.78806
head 8.68116 -1.13133 2.38003
rclavicle 3.89866e-014 -1.03368e-014
rhumerus -68.8994 9.36759 -82.5402
rradius 69.9586
rwrist -10.5169
rhand -15.64 -11.3372
rfingers 7.12502
rthumb 10.5475 -41.0526
lclavicle 3.89866e-014 -1.03368e-014
lhumerus 8.8197 -12.946 84.0328
lradius 75.8501
lwrist 4.58851
lhand -17.4189 4.99895
lfingers 7.12502
lthumb 8.83112 34.7942
rfemur -76.4686 -10.2582 20.9142
rtibia 78.9453
rfoot 917.546 -187.178
rtoes 20.9931
lfemur 10.8752 -4.68565 -27.7274
ltibia 14.8158
lfoot 708.641 -5.35659
ltoes -11.9604
707
root -32.6473 17.9679 3.6023 1207.07 -94.8936 -1203.86
lowerback -0.822197 -4.10231 -5.81297
upperback -3.15328 -5.5287 1.56543
thorax -2.10035 -2.63671 4.88824
lowerneck -20.0029 -2.40015 -5.02869
upperneck 16.6833 -3.0845 5.82845
head 8.6715 -1.16707 2.39846
rclavicle 1.46604e-015 3.97569e-015
rhumerus -68.2803 9.30332 -82.58
rradius 70.0756
rwrist -10.6207
rhand -15.7255 -11.3852
rfingers 7.12502
rthumb 10.465 -41.1047
lclavicle 1.46604e-015 3.97569e-015
lhumerus 8.10639 -13.1405 84.3912
lradius 75.4429
lwrist 4.26495
lhand -17.3938 4.98307
lfingers 7.12502
lthumb 8.85532 34.7773
rfemur -74.5929 -10.3786 20.7536
rtibia 76.9324
rfoot 918.927 -186.862
rtoes 22.3174
lfemur 11.1296 -4.80677 -27.5347
ltibia 14.7872
lfoot 708.716 -5.59294
ltoes -12.8014
708
root -32.8156 17.9467 3.58259 1209.84 -94.9165 -1206.35
lowerback -1.24667 -4.11004 -5.74512
upperback -3.24288 -5.51805 1.6262
thorax -1.9569 -2.63714 4.88332
lowerneck -19.9102 -2.46258 -5.11829
upperneck 16.6929 -3.15901 5.87286
head 8.66526 -1.20502 2.41869
rclavicle 5.1038e-014 -1.43125e-014
rhumerus -67.6165 9.21863 -82.6182
rradius 70.188
rwrist -10.6842
rhand -15.7871 -11.4341
rfingers 7.12502
rthumb 10.4055 -41.1566
lclavicle 5.1038e-014 -1.43125e-014
lhumerus 7.31876 -13.3717 84.7698
lradius 75.0011
lwrist 3.87467
lhand -17.4039 4.97936
lfingers 7.12502
lthumb 8.84561 34.774
rfemur -72.5479 -10.4795 20.5984
rtibia 74.7866
rfoot 920.268 -186.673
rtoes 23.561
lfemur 11.4031 -4.94269 -27.2722
ltibia 14.7801
lfoot 708.815 -5.8526
ltoes -13.6349
709
root -32.9875 17.9246 3.56084 1213.11 -94.9265 -1209.36
lowerback -1.66784 -4.12109 -5.65418
upperback -3.33166 -5.51272 1.70514
thorax -1.81423 -2.64053 4.8847
lowerneck -19.8122 -2.52861 -5.21615
upperneck 16.7106 -3.23754 5.91958
head 8.66136 -1.2453 2.44064
rclavicle 3.62782e-015 1.98785e-014
rhumerus -66.9145 9.1239 -82.6619
rradius 70.2839
rwrist -10.7302
rhand -15.8645 -11.4614
rfingers 7.12502
rthumb 10.3309 -41.1876
lclavicle 3.62782e-015 1.98785e-014
lhumerus 6.44219 -13.6372 85.1719
lradius 74.5301
lwrist 3.43766
lhand -17.441 4.99216
lfingers 7.12502
lthumb 8.80979 34.7883
rfemur -70.3361 -10.545 20.4604
rtibia 72.5058
rfoot 921.531 -186.527
rtoes 24.6124
lfemur 11.6775 -5.0899 -26.9336
ltibia 14.821
lfoot 708.941 -6.13591
ltoes -14.4697
710
root -33.164 17.9017 3.53729 1216.77 -94.943 -1212.8
lowerback -2.08309 -4.1373 -5.55233
upperback -3.41919 -5.51569 1.79404
thorax -1.67274 -2.64816 4.89064
lowerneck -19.7064 -2.59677 -5.31386
upperneck 16.7392 -3.3206 5.96683
head 8.66019 -1.28787 2.4623
rclavicle 5.1684e-015 -2.14687e-014
rhumerus -66.1843 9.01986 -82.7196
rradius 70.3664
rwrist -10.7607
rhand -15.9607 -11.4688
rfingers 7.12502
rthumb 10.238 -41.1996
lclavicle 5.1684e-015 -2.14687e-014
lhumerus 5.47026 -13.936 85.5921
lradius 74.0286
lwrist 2.98317
lhand -17.4929 5.01724
lfingers 7.12502
lthumb 8.75968 34.8155
rfemur -67.9525 -10.5777 20.3304
rtibia 70.0949
rfoot 922.684 -186.381
rtoes 25.4132
lfemur 11.9682 -5.25172 -26.546
ltibia 14.9097
lfoot 709.106 -6.43914
ltoes -15.3159
711
root -33.3461 17.8778 3.51205 1220.62 -94.9851 -1216.46
lowerback -2.49568 -4.15939 -5.45517
upperback -3.5029 -5.52775 1.88276
thorax -1.52749 -2.66038 4.89878
lowerneck -19.5954 -2.66657 -5.40709
upperneck 16.7824 -3.40891 6.01454
head 8.66347 -1.33278 2.48285
rclavicle -1.26725e-014 -8.74653e-015
rhumerus -65.4284 8.90628 -82.7978
rradius 70.4361
rwrist -10.7708
rhand -16.0485 -11.4751
rfingers 7.12502
rthumb 10.1534 -41.2101
lclavicle -1.26725e-014 -8.74653e-015
lhumerus 4.39721 -14.2651 86.0258
lradius 73.4985
lwrist 2.53623
lhand -17.5388 5.05418
lfingers 7.12502
lthumb 8.71542 34.8542
rfemur -65.3907 -10.5788 20.1947
rtibia 67.548
rfoot 923.715 -186.212
rtoes 25.9653
lfemur 12.2748 -5.42302 -26.1363
ltibia 15.0631
lfoot 709.313 -6.76687
ltoes -16.1631
